<?xml version="1.0" standalone="no"?><!DOCTYPE svg PUBLIC "-//W3C//DTD SVG 1.1//EN" "http://www.w3.org/Graphics/SVG/1.1/DTD/svg11.dtd"><svg t="1668304482582" class="icon" viewBox="0 0 1024 1024" version="1.1" xmlns="http://www.w3.org/2000/svg" p-id="2058" xmlns:xlink="http://www.w3.org/1999/xlink" width="200" height="200"><path d="M208.64 714.666667a21.333333 21.333333 0 0 1-21.333333-21.333334c0-529.066667 612.693333-605.44 619.093333-605.866666a22.613333 22.613333 0 0 1 18.773333 7.253333 21.333333 21.333333 0 0 1 3.84 20.053333c-107.093333 349.866667-2.133333 567.04 0 569.173334a21.333333 21.333333 0 1 1-37.973333 19.2c-4.693333-8.96-107.52-220.16-11.093333-568.32-123.306667 22.186667-548.693333 128-548.693334 558.506666a21.333333 21.333333 0 0 1-22.613333 21.333334zM306.773333 930.986667a21.333333 21.333333 0 0 1-21.333333-21.333334 81.493333 81.493333 0 1 0-162.56 0 21.333333 21.333333 0 0 1-42.666667 0 124.16 124.16 0 1 1 247.893334 0 21.333333 21.333333 0 0 1-21.333334 21.333334z" p-id="2059"></path><path d="M512 938.666667a21.333333 21.333333 0 0 1-21.333333-21.333334 81.493333 81.493333 0 1 0-162.56 0 21.333333 21.333333 0 0 1-42.666667 0 124.16 124.16 0 1 1 247.893333 0 21.333333 21.333333 0 0 1-21.333333 21.333334z" p-id="2060"></path><path d="M717.226667 938.666667a21.333333 21.333333 0 0 1-21.333334-21.333334 81.493333 81.493333 0 1 0-162.56 0 21.333333 21.333333 0 0 1-42.666666 0 124.16 124.16 0 1 1 247.893333 0 21.333333 21.333333 0 0 1-21.333333 21.333334z" p-id="2061"></path><path d="M922.453333 938.666667a21.333333 21.333333 0 0 1-21.333333-21.333334 81.493333 81.493333 0 1 0-162.56 0 21.333333 21.333333 0 0 1-42.666667 0 124.16 124.16 0 1 1 247.893334 0 21.333333 21.333333 0 0 1-21.333334 21.333334z" p-id="2062"></path></svg>