<?xml version="1.0" standalone="no"?><!DOCTYPE svg PUBLIC "-//W3C//DTD SVG 1.1//EN" "http://www.w3.org/Graphics/SVG/1.1/DTD/svg11.dtd"><svg t="1668304500123" class="icon" viewBox="0 0 1024 1024" version="1.1" xmlns="http://www.w3.org/2000/svg" p-id="2207" xmlns:xlink="http://www.w3.org/1999/xlink" width="200" height="200"><path d="M1024 491.52C1024 331.093333 829.44 153.6 682.666667 136.533333c10.24-54.613333 61.44-109.226667 61.44-109.226666 6.826667-3.413333 6.826667-10.24 6.826666-17.066667-3.413333-6.826667-10.24-10.24-17.066666-10.24-10.24 0-235.52 20.48-252.586667 136.533333C293.546667 146.773333 20.48 303.786667 10.24 310.613333c-6.826667 0-10.24 6.826667-10.24 10.24s0 10.24 3.413333 13.653334C47.786667 389.12 146.773333 409.6 150.186667 409.6c3.413333 0 6.826667 0 10.24-3.413333 17.066667-6.826667 68.266667-30.72 95.573333-30.72 30.72 0 58.026667 6.826667 78.506667 10.24-51.2 17.066667-112.64 47.786667-126.293334 61.44-6.826667 6.826667-6.826667 17.066667 0 23.893333 37.546667 37.546667 78.506667 44.373333 112.64 40.96h40.96c13.653333 0 30.72-3.413333 47.786667-3.413333h170.666667s102.4 3.413333 102.4 68.266666-139.946667 102.4-238.933334 102.4c-54.613333 0-112.64-10.24-163.84-20.48-37.546667-6.826667-68.266667-13.653333-92.16-13.653333-23.893333 0-146.773333 3.413333-184.32 37.546667-3.413333 10.24-3.413333 17.066667-3.413333 23.893333s10.24 10.24 17.066667 10.24C98.986667 716.8 136.533333 808.96 136.533333 808.96c3.413333 3.413333 3.413333 6.826667 10.24 10.24 0 0 30.72 13.653333 58.026667 13.653333 17.066667 0 30.72-3.413333 40.96-10.24 75.093333 3.413333 95.573333 75.093333 98.986667 98.986667-6.826667 10.24-27.306667 37.546667-64.853334 78.506667-6.826667 0-6.826667 6.826667-6.826666 13.653333s10.24 10.24 17.066666 10.24c116.053333 0 256-75.093333 256-136.533333 0-30.72-6.826667-51.2-17.066666-68.266667 208.213333-17.066667 494.933333-157.013333 494.933333-327.68zM324.266667 307.2c-10.24 0-17.066667-6.826667-17.066667-17.066667s6.826667-17.066667 17.066667-17.066666 17.066667 6.826667 17.066666 17.066666-6.826667 17.066667-17.066666 17.066667z m443.733333 341.333333c-6.826667 0-13.653333-3.413333-17.066667-10.24-3.413333-6.826667 0-13.653333 6.826667-20.48 0 0 27.306667-20.48 27.306667-71.68s-75.093333-136.533333-153.6-136.533333c-10.24 0-17.066667-6.826667-17.066667-17.066667s6.826667-17.066667 17.066667-17.066666c95.573333 0 187.733333 98.986667 187.733333 170.666666 0 20.48-3.413333 37.546667-6.826667 51.2 20.48-17.066667 40.96-44.373333 40.96-102.4 0-119.466667-58.026667-153.6-58.026666-157.013333-6.826667-3.413333-10.24-13.653333-6.826667-23.893333 3.413333-6.826667 13.653333-10.24 23.893333-6.826667 3.413333 3.413333 78.506667 44.373333 78.506667 184.32-3.413333 150.186667-119.466667 157.013333-122.88 157.013333z" fill="" p-id="2208"></path><path d="M392.533333 546.133333c27.306667 44.373333 78.506667 88.746667 88.746667 98.986667 3.413333 3.413333 6.826667 3.413333 10.24 3.413333 3.413333 0 6.826667 0 10.24-3.413333 6.826667-3.413333 10.24-10.24 6.826667-17.066667-3.413333-13.653333-6.826667-54.613333 3.413333-81.92h-119.466667z" fill="" p-id="2209"></path></svg>